<svg version="1.2" xmlns="http://www.w3.org/2000/svg" viewBox="0 0 336 336" width="336" height="336"><style>.a{fill:#1d0403;stroke:#1d0403;stroke-width:.4}.b{fill:#f5b153;stroke:#f5b153;stroke-width:.4}.c{fill:#150300;stroke:#150300;stroke-width:.4}.d{fill:#d97d15;stroke:#d97d15;stroke-width:.4}.e{fill:#fffed3;stroke:#fffed3;stroke-width:.4}.f{fill:#1b0504;stroke:#1b0504;stroke-width:.4}.g{fill:#190403;stroke:#190403;stroke-width:.4}.h{fill:#1c0403;stroke:#1c0403;stroke-width:.4}.i{fill:#fbfaf9;stroke:#fbfaf9;stroke-width:.4}.j{fill:#d67b0b;stroke:#d67b0b;stroke-width:.4}.k{fill:#1a0404;stroke:#1a0404;stroke-width:.4}.l{fill:#1d0502;stroke:#1d0502;stroke-width:.4}.m{fill:#d87c0c;stroke:#d87c0c;stroke-width:.4}.n{fill:#130300;stroke:#130300;stroke-width:.4}.o{fill:#d77c09;stroke:#d77c09;stroke-width:.4}.p{fill:#f7f6f6;stroke:#f7f6f6;stroke-width:.4}.q{fill:#9b3614;stroke:#9b3614;stroke-width:.4}.r{fill:#d77c0d;stroke:#d77c0d;stroke-width:.4}.s{fill:#d77c0b;stroke:#d77c0b;stroke-width:.4}.t{fill:#5b1208;stroke:#5b1208;stroke-width:.4}.u{fill:#fde0b6;stroke:#fde0b6;stroke-width:.4}.v{fill:#de7331;stroke:#de7331;stroke-width:.4}.w{fill:#fbfaf8;stroke:#fbfaf8;stroke-width:.4}.x{fill:#812619;stroke:#812619;stroke-width:.4}.y{fill:#d57a09;stroke:#d57a09;stroke-width:.4}.z{fill:#d6822c;stroke:#d6822c;stroke-width:.4}.A{fill:#d87d0a;stroke:#d87d0a;stroke-width:.4}.B{fill:#8b3110;stroke:#8b3110;stroke-width:.4}.C{fill:#d97d0b;stroke:#d97d0b;stroke-width:.4}.D{fill:#af5219;stroke:#af5219;stroke-width:.4}.E{fill:#fdfaf5;stroke:#fdfaf5;stroke-width:.4}.F{fill:#561c0c;stroke:#561c0c;stroke-width:.4}.G{fill:#fde0b5;stroke:#fde0b5;stroke-width:.4}.H{fill:#f3ae4a;stroke:#f3ae4a;stroke-width:.4}.I{fill:#d27f51;stroke:#d27f51;stroke-width:.4}.J{fill:#d87f0e;stroke:#d87f0e;stroke-width:.4}.K{fill:#d97e10;stroke:#d97e10;stroke-width:.4}.L{fill:#150800;stroke:#150800;stroke-width:.4}.M{fill:#fbf9f9;stroke:#fbf9f9;stroke-width:.4}.N{fill:#d57c0a;stroke:#d57c0a;stroke-width:.4}.O{fill:#d57c0b;stroke:#d57c0b;stroke-width:.4}.P{fill:#9f501d;stroke:#9f501d;stroke-width:.4}.Q{fill:#d87b0c;stroke:#d87b0c;stroke-width:.4}.R{fill:#d57b0c;stroke:#d57b0c;stroke-width:.4}.S{fill:#7a3427;stroke:#7a3427;stroke-width:.4}.T{fill:#cf7e56;stroke:#cf7e56;stroke-width:.4}.U{fill:#faf9fa;stroke:#faf9fa;stroke-width:.4}.V{fill:#d67c0b;stroke:#d67c0b;stroke-width:.4}.W{fill:#d77c0c;stroke:#d77c0c;stroke-width:.4}.X{fill:#d67a0d;stroke:#d67a0d;stroke-width:.4}.Y{fill:#cd6717;stroke:#cd6717;stroke-width:.4}.Z{fill:#fbf9fa;stroke:#fbf9fa;stroke-width:.4}.a0{fill:#d77b0e;stroke:#d77b0e;stroke-width:.4}.a1{fill:#c77024;stroke:#c77024;stroke-width:.4}.a2{fill:#652114;stroke:#652114;stroke-width:.4}.a3{fill:#d77e10;stroke:#d77e10;stroke-width:.4}.a4{fill:#d67d0b;stroke:#d67d0b;stroke-width:.4}.a5{fill:#fbfbf7;stroke:#fbfbf7;stroke-width:.4}.a6{fill:#d47a0a;stroke:#d47a0a;stroke-width:.4}.a7{fill:#fbebd1;stroke:#fbebd1;stroke-width:.4}.a8{fill:#d67c0a;stroke:#d67c0a;stroke-width:.4}.a9{fill:#ae5012;stroke:#ae5012;stroke-width:.4}.aa{fill:#d17c2c;stroke:#d17c2c;stroke-width:.4}.ab{fill:#fde1b7;stroke:#fde1b7;stroke-width:.4}.ac{fill:#9a5139;stroke:#9a5139;stroke-width:.4}.ad{fill:#d77d0c;stroke:#d77d0c;stroke-width:.4}</style><path class="a" d="m142.4 23.3c8-1.7 16.2-2.5 24.3-1.8 10 1 19.5 4.8 28.5 9.1 19 8.4 37.3 18.3 55.2 28.9 10.5 6.2 21.7 11.1 32.5 16.7 5.2 2.8 11.2 6.1 12.4 12.4 0.8 5.1 0.3 10.3 0.5 15.4-0.1 6.4 0.8 13.4-3.2 18.9 3.9 6 2.4 13.4 2.8 20.1-0.1 4.4 0.5 9.1-1.2 13.4-1.5 2.9-4.5 4.4-7.2 5.9 1.1 4.8 0.5 9.7 1.1 14.5 2.2 2.5 5.1 4.4 6.7 7.4 2 3.6 1.6 7.8 1.7 11.8-0.2 6.7 0.1 13.4-0.2 20 0.1 2.8-1.6 5-3 7.2 0.4 3 2.2 5.7 2 8.8 0 6.9 0.4 13.9-0.2 20.9-0.6 6.5-6.9 9.9-12.3 11.9-12.6 4.6-25.5 8-37.7 13.3-11.9 4.6-23.5 10.2-35.8 13.3-15.3 4.1-31.5 4-46.3 9.7-8.1 3-16 7.8-24.9 7.7-10.2 0.7-19.6-3.8-28.2-8.7-14.5-8.7-29.5-16.5-44.2-24.8-7-4.2-14.5-7.8-20.6-13.4-3.1-2.7-4.7-6.8-4.5-10.9 0-9-0.1-18-0.1-27 0.1-4.9 4.3-8 7.7-10.9 0-3.6-0.3-7.4 1.4-10.7 1.5-3.5 4.8-5.7 7.4-8.4-4.2-3.1-9.6-4.8-12.9-9.1-2.2-2.8-2.2-6.5-2.2-9.9 0-7.3-0.3-14.6 0.4-21.9 0.2-2.7 2.2-4.7 3.6-6.9-2.9-2.4-5.7-5.5-6.4-9.4-0.6-3.9 0.2-7.9 0.2-11.8 0.2-5.9-0.4-11.9 0.6-17.8 0.4-3.5 3.3-5.6 5.6-7.8-3-2.3-6.5-4.5-8.3-8-2-3.5-1.2-7.6-1.4-11.4 0.2-6.9-0.3-13.8 0.4-20.6 1.2-5.6 6.9-8.1 11.7-10 21.7-8 44.1-13.7 66.4-19.6 9.2-2.3 18.4-4.4 27.7-6.5z"/><path class="b" d="m141.1 29.1c9.5-2.2 19.3-3.6 29-2.1 6.1 0.8 11.8 3.2 17.5 5.4 9.7 4.2 19.1 8.8 28.5 13.5 0.8 0.5 1.7 0.9 2.2 1.7 1.3 2 2.2 4.5 4.5 5.6 2.1 0.5 4.4 0.3 6.6 0.3 3.4 0.9 6.3 3.2 9.4 4.7 15.1 9 30.8 16.9 46.5 24.9-0.2 0.3-0.6 0.9-0.8 1.2-12.3 7-26.4 9.8-39.7 14.5-16 5.8-32.7 9.6-48.7 15.4-0.4 0.1-1.2 0.4-1.5 0.5 0.4-2.7 3.6-7.5-0.9-8.1-9-0.1-17.7 3.3-25.7 7.3-12.2 4.4-25.1 9.4-38.3 6.5-7.3-1.5-13.5-6.2-18.5-11.6-5.3-5.4-12.1-8.7-18.5-12.5-10.6-6.1-21.2-12.2-31.8-18.1-6.2-3.7-12.7-7.1-17.8-12.2-1.4-1.6-3.2-3.7-2.2-5.8 0.9-2.8 3.6-4.3 6.2-5.1 30.7-10.8 62.3-19 94-26z"/><path class="c" d="m159.4 32.3c7.3-2.2 14.6 0.7 20.9 4.4 21.3 12 43.1 23.1 64.9 34.2 3.5 1.9 7.4 3.6 10.3 6.6 0.9 2.2 0.6 5.2-1.5 6.5-3.6 2.2-7.8 3-11.8 4.2-15.1 4.4-30.2 8.8-45.5 12.5-16.1 3.8-32.1 8.4-48.3 11.6-6.3 2-13.4 1.9-19.1-1.6-8.7-5.4-17-11.2-25.9-16.2-13.6-7.4-26.4-16.3-40-23.9-2.8-1.6-6.4-3.9-6.2-7.6-0.4-3.5 3.5-4.7 6.1-5.7 31.7-9.6 63.2-20.4 96.1-25z"/><path class="d" d="m141.6 38.5c8.1-1.4 16.2-3.4 24.5-3.9 7.7 0.9 14.1 5.9 21 9.4 8.8 4.3 17 9.7 25.9 13.9 13.4 7.2 27.4 13.1 40.2 21.4-0.6 1.9-2.2 3.3-4.1 3.7-8.8 2.8-17.8 4.9-26.7 7.5-17.2 5.3-34.8 9.1-52.3 13.7-9.7 2.1-19.2 5.1-29.1 6.1-7.7 0.9-13.8-4.6-19.8-8.5-7.6-5.2-15.9-9.4-23.8-14.2-11.3-6.6-22.2-14-33.8-20.1-1.8-1-4.3-2.5-3.1-4.9 2-2.1 5-2.6 7.6-3.5 24.4-7.1 48.5-15.7 73.5-20.6z"/><path class="e" d="m222.8 53.2c-2.3-1.1-3.2-3.6-4.5-5.6 4 1.3 7.9 3.2 11.1 5.9-2.2 0-4.5 0.2-6.6-0.3z"/><path class="f" d="m145.1 57.1c2.7-4.2 8.3-2.2 11.9-0.4 1.5-0.8 2.9-2.6 4.7-1.5 1.1 3.1-1.3 6.4-4.6 6-4-1.3-8-2.8-12-4.1z"/><path class="g" d="m121.1 68.9c1.3-1.4 2.6-2.8 4-4.2 1.2 2.3 1.9 6.1-1.1 7.4-4.4 2.2-8.7-1.1-12.8-2.4-1.1-0.3-2.6-1-1.9-2.4 3.7-2.5 8.3-0.4 11.8 1.6z"/><path class="h" d="m174.1 67.1c1.6-0.6 3.1-1.5 4.9-1.5 2.1 0.4 4 1.5 5.9 2.4 1.9-0.9 3.9-1.7 6-2-0.1 1.7 0.1 3.6-0.6 5.3-5.1 4-10.4-2.1-15.8-2.1-0.1-0.5-0.3-1.6-0.4-2.1z"/><path class="i" d="m40.2 67.7c3.4 4 7 7.9 11.5 10.6 12.3 7.6 25.4 13.8 37.9 21.1 5.6 3.2 12.1 5.5 16.3 10.6 1.1 2 2.1 4.1 3.1 6.1 2.4 6.1 4.6 12.6 4.7 19.3-1.6-1.3-3.7-2.5-4.5-4.4-0.6-2.5-0.1-5.4-1.8-7.4-5.8-5.3-12.7-9.3-18.9-13.9-6.3-5.5-12.3-11.4-19.2-16.1-5.7-4-11.9-7.2-17.6-11.4-3.9-2.8-7.1-6.6-10.8-9.7-0.3-1.6-0.5-3.2-0.7-4.8z"/><path class="j" d="m40.9 72.5c3.7 3.1 6.9 6.9 10.9 9.7 5.6 4.2 11.8 7.4 17.5 11.4 6.9 4.7 12.9 10.6 19.2 16.1 3.2 5.3 9.2 7.8 13.7 11.9 0.9 1.5 1.7 2.9 2.6 4.4-1.7-0.3-3.4-0.5-5-0.9-7.7-3.2-14-8.9-21.5-12.4-9.9-4.5-19.1-10.3-28.7-15.3-3.8-2.1-7.9-4.9-8.7-9.4-0.8-5.2-0.5-10.4 0-15.5z"/><path class="k" d="m199.8 81.1c3.8-3.1 8.6-1 12.2 1.1 1.5-1 2.9-3.2 4.9-2 1.2 2.4 0 5.3-2.3 6.4-3.5 1.7-6.5-1.7-9.7-2.4-1.8-1-5.1-0.5-5.1-3.1z"/><path class="l" d="m148.2 83.3c3.5-0.3 7 0.4 9.8 2.4 1.5-1 2.6-3.8 4.7-2.4 0.9 2.5 0.2 6.1-2.9 6.6-4.5 0.6-8.4-2.6-12.7-3.5q0.5-1.5 1.1-3.1z"/><path class="m" d="m285.3 83.1c2.5 1.8 5.9 4.2 4.9 7.8-2 6.3-8.2 10.1-14.1 12.1-5.9 1.8-11.9 3.8-18.1 3.6-4.6-0.2-9.3 0.3-13.9 0.7q-2.1 0-4.1-0.1 1.9-1.3 3.9-2.6-2.1-0.9-4.1-1.8 16.5-5.6 33.1-11c4.4-1.5 9.5-2.9 11.6-7.5 0.2-0.3 0.6-0.9 0.8-1.2z"/><path class="n" d="m244.8 98.8c13.3-4.7 27.4-7.5 39.7-14.5-2.1 4.6-7.2 6-11.6 7.5q-16.6 5.4-33.1 11c-7.2 2.4-14.4 4.6-21.4 7.2-3 0.6-5.8 1.5-8.6 2.6-5.7 2.1-11.7 3.5-17 6.5-8.2 4-16.6 7.6-24.7 11.7-0.4-0.3-1.2-0.8-1.6-1.1 9.6-5.6 20.3-9.3 29.6-15.5 16-5.8 32.7-9.6 48.7-15.4z"/><path class="o" d="m283.1 103.1c3.5-1.9 6.1-5 8.6-8-0.5 7.3 1.2 15.1-1.5 22.2-4.1 5.3-11.3 6.6-17.5 8.3 0.3-4 1.4-8 0.5-11.9-1.4-2.2-3.8-3.4-5.9-5 5.4-1.6 11-2.6 15.8-5.6z"/><path class="p" d="m47.6 103.9c1.2-0.6 2.4-2.3 3.9-1.3 10.4 5.8 20.5 12.1 30.8 18.2 3 1.9 6.2 3.7 8.9 6-0.4 0-1.1 0-1.5-0.1-3.8-0.3-7.3-2.1-10.9-3.5-10.2-5.5-20.5-11.2-30.4-17.4-0.2-0.5-0.6-1.5-0.8-1.9z"/><path class="q" d="m218.4 110c7-2.6 14.2-4.8 21.4-7.2q2 0.9 4.1 1.8-2 1.3-3.9 2.6 2 0.1 4.1 0.1c-3.5 1-7.1 1.4-10.7 1.4-5.1-0.2-10 2-15 1.3z"/><path class="r" d="m44.7 111.4c-1.2-3 1.3-5.4 2.9-7.5 0.2 0.4 0.6 1.4 0.8 1.9 0.9 3.1 4.5 4.1 7 5.7 7.3 4.3 15 8.1 21.4 13.7 5.2 4.3 12.2 4.7 17.9 8.1 5.5 2.9 9.7 7.6 14.9 11q-0.7 3.9-1.2 7.8c-6.9-3.7-13.2-8.5-20.1-12.4-11.7-7.5-24.3-13.5-35.9-21.2-2.8-2-6-4-7.7-7.1z"/><path class="s" d="m168 113.9c8-4 16.7-7.4 25.7-7.3 4.5 0.6 1.3 5.4 0.9 8.1 0.3-0.1 1.1-0.4 1.5-0.5-9.3 6.2-20 9.9-29.6 15.5-5.9 2.4-9.4 8.6-15.7 10-8.4 2.3-17.3 3.1-25.7 1.4-3-0.8-6.1-1.7-8.5-3.7-1-3.3-0.7-6.9-1.7-10.2-1.2-4.1-3.7-7.6-5.9-11.1-1-2-2-4.1-3.1-6.1 3.5 1.1 6.4 3.5 8.9 6.2 6.9 7.2 17.6 9.1 27.2 7.8 7-0.7 13.4-3.6 19.8-6.3 2.3-0.9 4.3-2.4 6.2-3.8z"/><path class="t" d="m218.4 110c5 0.7 9.9-1.5 15-1.3-3.9 2.3-8.5 2.6-12.7 4-3.5 1.1-6.9 2.3-10.3 3.2q-0.3-1.6-0.6-3.3c2.8-1.1 5.6-2 8.6-2.6z"/><path class="u" d="m229.1 112.8c9.8-1.8 19.6-4.3 29.7-3.3 4.3 1.2 8.3 3.2 12.2 5.4 1.6 0.8 1.1 2.8 1.1 4.1-0.5 2.9-0.8 6.9-4.1 8-6.9 2.5-14.2 4.1-21.1 7-11.3 4.5-22.9 8.2-34.7 11.4-14.7 4-29.9 5.6-44.6 9.1-5.7 1.3-10.4 4.7-14.9 8.2-2.9-5.5-3-12.7-0.5-18.4 0.9-2.3 3.4-2.9 5.5-3.6 8.4-2.8 16-7.4 24.1-10.8 15.5-6.4 30.7-14 47.3-17.1z"/><path class="l" d="m102.2 121.6c-4.5-4.1-10.5-6.6-13.7-11.9 6.2 4.6 13.1 8.6 18.9 13.9-1.7-0.6-3.5-1.2-5.2-2z"/><path class="v" d="m192.8 119.1c5.3-3 11.3-4.4 17-6.5q0.3 1.7 0.6 3.3c-5.4 1.4-10.5 3.5-15.5 5.5q-1.1-1.1-2.1-2.3z"/><path class="w" d="m43.6 116.2c5.7 7.2 14.2 10.9 22 15.3 13.2 6.8 26 14.3 38.1 22.9q-1.7 2.4-3.6 4.5c-2.1 2.1 1.6 3.7 2.8 5.1 2.6 3.3 4.9 6.8 6.7 10.6 2.3 5.4 3.3 11.2 3.9 17-1.6-1.8-4.1-3.1-4.4-5.6-0.5-2.2-0.6-4.6-1.6-6.6-7.2-8.2-18.6-12.3-23.6-22.5-0.2-2 0.3-4 0.5-5.9-8-6.6-16.6-12.6-25.6-17.9-5.6-3-10.3-7.3-14.8-11.7-0.5 5.1-0.6 10.3-0.4 15.4-0.6-6.9 0.4-13.8 0-20.6z"/><path class="x" d="m168.1 130.8c8.1-4.2 16.5-7.7 24.7-11.7q1 1.2 2.1 2.3c-11 4.8-22.1 9.5-33 14.5 1.9-1.9 3.8-3.8 6.2-5.1z"/><path class="y" d="m44 121.4c4.5 4.4 9.2 8.7 14.8 11.7 9 5.3 17.6 11.3 25.6 17.9-0.2 1.9-0.7 3.9-0.5 5.9 2.1 7.5 8.9 11.9 14.5 16.6-0.4 0.6-1.3 1.9-1.7 2.5-6.9-4.9-14.5-9.3-19.3-16.5-8.6-4.7-17.2-9.2-25.8-14.1-3.4-1.9-7-4.6-8-8.6-0.2-5.1-0.1-10.3 0.4-15.4z"/><path class="z" d="m102.2 121.6c1.7 0.8 3.5 1.4 5.2 2 1.7 2 1.2 4.9 1.8 7.4-3.4-1.6-6.5-3.6-9.5-5.9 1.7 0.4 3.4 0.6 5.1 0.9-0.9-1.5-1.7-2.9-2.6-4.4z"/><path class="r" d="m244 139.8c14.4-6.6 30.2-9.3 45.1-14.7 0.8 2.7 1.3 5.9-1 8-7.8 7.9-19.1 11.5-30 12.2-6.2 0.1-12.6 0.5-18.6-1.5 1.4-1.4 2.9-2.8 4.5-4z"/><path class="b" d="m91.2 126.8c1.8 0.2 3.1 1.6 4.7 2.4 6.6 4.6 14 7.9 20.3 13-0.6 0.1-1.8 0.3-2.4 0.4-7.3-6.4-16-10.6-24.1-15.8 0.4 0 1.1 0 1.5 0z"/><path class="A" d="m267 147.2c8.7-2.7 18-5.6 23.9-13.1 0.3 6 0.7 12-0.1 17.9-0.3 3.3-3.3 5.4-6.1 6.7-4 1.9-8.3 3.1-12.5 4.2 0.1-3.8 0.9-7.7 0.3-11.5-1-2.2-3.6-3-5.5-4.2z"/><path class="B" d="m225.9 144.7c6-1.6 11.9-3.7 18.1-4.9-1.6 1.2-3.1 2.6-4.5 4 6 2 12.4 1.6 18.6 1.5-6.7 0.6-13.6 0.1-20.3 1.3-6.5 0.6-12.9 2.2-19.4 2.3-0.7-0.1-2-0.2-2.7-0.2 3.2-1.9 6.7-3 10.2-4z"/><path class="C" d="m113.8 142.6c0.6-0.1 1.8-0.3 2.4-0.4 2 0.4 3.8 1.3 5.7 1.9 5.7 2 11.8 1.7 17.7 1.5-0.5 6.1-0.3 12.2 0.2 18.2-1.4 0.4-2.7 0.8-4.1 1.2-5.1 0.3-10.6-0.2-15.2-2.5-3.3-1.6-2.7-5.7-3.2-8.7-0.1-4-1.7-7.7-3.5-11.2z"/><path class="D" d="m139.6 145.6q4.3-0.8 8.7-1.5c-0.5 6.3-1.2 12.8 0.1 19.1-4.2 1.2-8.4 1.8-12.7 1.8 1.4-0.4 2.7-0.8 4.1-1.2-0.5-6-0.7-12.1-0.2-18.2z"/><path class="E" d="m108.4 152.1q0.5-3.9 1.2-7.8c5.6 2.6 6.3 9.4 6 14.8-2.8-2-4.9-4.5-7.2-7z"/><path class="F" d="m198 152.8c5.7-1.9 11.7-3.5 17.7-4.2 0.7 0.1 2 0.2 2.7 0.3-4.5 2.1-9.5 2.7-14.3 3.5q1.4 0.4 2.9 0.9c-4.2 2.4-8.7 3.9-13.2 5.6-8.6 3.6-17.2 7.2-25.4 11.7-2.8 1.5-5 3.9-7.3 6.1-0.3-0.5-0.8-1.6-1.1-2.2 3.2-2.4 6.1-5.1 9.6-7 9-4.9 18.4-9.3 28.3-12.1-0.5-0.1-1.5-0.5-2.1-0.7q2.3-0.8 4.5-1.7c-0.6-0.1-1.7-0.1-2.3-0.2z"/><path class="G" d="m225 150.7c10.3-1.3 20.6-3.3 31.1-2.8 5.4 0.4 11.3 2.1 15 6.2 0.6 3-0.2 6.4-2.3 8.6-2.8 3.5-7.7 3.2-11.6 4.7-14.1 5-27.6 11.9-42.1 15.8-18.6 5.5-38.3 6.4-56.7 12.8-0.2-4.9-0.5-10.1 2.2-14.4 2.6-3.8 6.5-6.3 10.4-8.6 13.9-8.2 28.9-14.1 43.6-20.4 3.3-1.5 6.9-1.4 10.4-1.9z"/><path class="H" d="m47.6 155.4c-1.5-2.4 0.7-6 3.4-6 3.4 1.4 6.4 3.5 9.5 5.5q-3.4 2.8-6.7 5.8c-2.2-1.6-4.6-3-6.2-5.3z"/><path class="I" d="m186.7 155.1c3.8-0.7 7.5-1.7 11.3-2.3 0.6 0.1 1.7 0.1 2.3 0.2q-2.2 0.9-4.5 1.7c-2.9 1-5.8 1.9-8.7 2.9q-0.2-1.3-0.4-2.5z"/><path class="J" d="m103.7 154.4c6.4 4.2 11.8 10.1 19.1 12.8 9.6 3.5 20.3 1.9 29.7-1.7 4.6-1.8 8.5-5.3 13.5-6.5 6.8-1.7 13.7-2.9 20.7-3.9q0.2 1.2 0.4 2.5c-9.8 3.9-19.4 8.3-28.1 14.4-10.4 7.5-24.9 9.1-36.6 3.6-7.1-3.5-11.6-10.5-17.8-15.2-1.3-1-2.9-1.3-4.5-1.5q1.9-2.1 3.6-4.5z"/><path class="K" d="m60.5 154.9c9 6.1 18.4 11.7 26.8 18.7 6.4 4.9 13 9.7 18.6 15.5 6 5.4 11.8 11.8 19.8 14.1 9.4 2.6 19.5 2.1 28.7-0.9 6.9-2.3 13.7-6.2 21.1-5.9 0.7 0.1 2.1 0.5 2.8 0.7-3.8 2.3-8.1 3.8-11.9 6.4-5.4 3.5-10.9 7.4-17.4 8.6-9.9 1.7-20.8 0.1-28.9-6.2-4.3-3.3-7.9-7.4-12-11-6.2-5.4-13.5-9.2-20.5-13.5-11.4-6.7-22.9-13.3-33.8-20.8q3.3-2.9 6.7-5.7z"/><path class="L" d="m187.1 157.6c2.9-1 5.8-1.9 8.7-2.9 0.6 0.2 1.6 0.6 2.1 0.7-9.9 2.8-19.3 7.2-28.3 12.1-3.5 1.9-6.4 4.6-9.6 7-11.5 8.6-27.8 9.6-40.3 2.9-6.5-3.4-10.1-10.5-16.8-13.4-1.2-1.4-4.9-3-2.8-5.1 1.6 0.3 3.2 0.5 4.5 1.5 6.2 4.7 10.7 11.7 17.8 15.2 11.7 5.5 26.2 3.9 36.6-3.6 8.7-6.1 18.3-10.5 28.1-14.4z"/><path class="l" d="m83.9 156.9c5 10.2 16.4 14.3 23.6 22.5-3.3-1.6-6.3-3.6-9.1-5.9-5.6-4.7-12.4-9.1-14.5-16.6z"/><path class="M" d="m46.6 159.4c6.4 7.7 15.2 12.5 23.8 17.2 7 4 14.1 7.9 21.1 12 6.4 3.7 13.4 6.8 18.2 12.5 1 2.3 1.8 4.6 2.7 6.9 1.4 5.4 3 10.8 3.1 16.4-2.1-2-6-3.3-6-6.5-0.1-1.7 0-3.3-0.1-4.9 0-0.5-0.1-1.4-0.1-1.9-7-4.9-14.7-8.7-21.2-14.4-4.5-4.4-9.4-8.5-14.2-12.6-9.2-6.9-20.4-11.6-27.2-21.4 0-0.8-0.1-2.5-0.1-3.3z"/><path class="N" d="m46.7 162.7c6.8 9.8 18 14.5 27.2 21.4 4.8 4.2 9.7 8.2 14.2 12.6 2.2 4.1 6 6.8 9.8 9.2q1 1.9 1.8 3.9c-2.3-0.6-4.6-1.1-6.9-1.8-3.8-1.3-7-3.7-10.6-5.4-10.9-5.5-22-10.9-32.2-17.6-1.7-1.1-3.4-2.8-3.4-5-0.5-5.7-0.3-11.5 0.1-17.3z"/><path class="m" d="m102.9 164c6.7 2.9 10.3 10 16.8 13.4 12.5 6.7 28.8 5.7 40.3-2.9 0.3 0.6 0.8 1.7 1.1 2.2-4.8 5.7-6.1 13.4-4.9 20.5-9.3 3.9-19.9 4.4-29.7 2.2-3.6-1.3-7.9-2.5-10.1-5.8-1.4-6-2.2-12.3-5.2-17.7q-0.8-0.7-1.6-1.3c-1.8-3.8-4.1-7.3-6.7-10.6z"/><path class="O" d="m245.1 176.1c12.6-4.3 25.1-8.8 38-12-0.8 5.9-6.3 9.5-11.3 11.7-4.7 2.1-9.6 4-14.8 4.4-9.7 0.4-19.5 1-28.9 3.7 6-1.8 11-6 17-7.8z"/><path class="P" d="m274.1 178.3c3.3-3.1 6.9-6 9.8-9.4 0.2 5.1 0.2 10.2-0.5 15.3 0-3-0.1-6-0.2-8.9q-4.5 1.7-9.1 3z"/><path class="z" d="m98.4 173.5c2.8 2.3 5.8 4.3 9.1 5.9 1 2 1.1 4.4 1.6 6.6-3.9-3.6-8-7-12.4-10 0.4-0.6 1.3-1.9 1.7-2.5z"/><path class="Q" d="m274.1 178.3q4.6-1.3 9.1-3c0.1 2.9 0.2 5.9 0.2 8.9-0.3 2.8-0.7 6.2-3.3 7.9-3.5 2.3-7.7 3.1-11.7 4 0.4-3.2 1.5-6.6 0.1-9.7-1.4-1.8-3.4-3.1-5.2-4.5 3.6-1.3 7.1-2.7 10.8-3.6z"/><path class="G" d="m239.6 184.8c5.7-0.9 11.5-2.2 17.2-1.4 3.7 0.9 7.2 2.6 10.2 4.8 1.6 3.6-0.1 8.5-3.9 9.9-6 2.4-12 4.5-17.9 7.1-15.8 6.8-32.2 12.7-49.2 15.8-12.5 2.1-25.1 4.5-36.9 9.1-0.5-4.7-1.7-10.4 1.7-14.3 4.7-4.7 10.9-7.2 16.7-10.2 12.9-6 26.2-11 39.6-15.7 7.2-2.7 14.9-3.9 22.5-5.2z"/><path class="R" d="m288.1 182.4c3.3 2.2 4.9 6.5 3.5 10.2-2.4 7.2-9.2 11.6-15.9 14.1-7 2.3-14.3 3.7-21.7 4-5.4 0.3-10.7 1.7-16.1 2.2 7.8-4.6 16.6-6.9 24.9-10.1 6.3-2.5 13.2-3.6 19.2-6.9 4.9-2.6 4.5-8.9 6.1-13.5z"/><path class="S" d="m181.7 194.9c7-2.2 14.4-3.2 21.7-4-2.9 1.8-6.2 2.3-9.5 2.6q2.1 0.4 4.2 1c-11.5 3.9-23.2 7.6-33.4 14.2-2.3 1.3-4 4.2-6.5 4.7-0.6-0.1-1.7-0.2-2.3-0.3 7-5.4 14.2-10.5 22.3-14 4.4-2.2 9.5-2.5 13.9-4.7-2.6 0.2-5.2 1-7.8 0.9-0.7-0.1-2-0.3-2.6-0.4z"/><path class="T" d="m175.5 196.4c2-0.7 4-1.7 6.2-1.5 0.6 0.1 1.9 0.3 2.6 0.4-1.9 0.7-3.9 1.9-6 1.8-0.7-0.2-2.1-0.6-2.8-0.7z"/><path class="U" d="m56.8 201.1c1.4-1.4 2.6-3.2 4.4-4.1 2.8 0.1 5.1 2.1 7.5 3.3 12 7.3 24.9 13.2 36.6 21q-1.9 2.7-3.8 5.5c-8.6-3.4-16-9-24.1-13.2-6.8-4.2-14.8-6.8-20.6-12.5z"/><path class="l" d="m88.1 196.7c6.5 5.7 14.2 9.5 21.2 14.4 0.1 0.5 0.1 1.4 0.1 1.9-3.6-2.7-7.5-5-11.5-7.1-3.8-2.5-7.6-5.1-9.8-9.2z"/><path class="V" d="m265.9 211.7c10.2-1.5 20.6-5.9 26.6-14.6-0.3 6.4 0.2 12.9-0.3 19.4-0.9 3.7-4.6 5.5-7.8 7-4 1.8-8.3 2.9-12.7 3.6 0.2-3.3 0.9-6.7 0.4-10-1.2-2.6-4-3.8-6.2-5.4z"/><path class="W" d="m109.8 201.1c5.5 2.5 8.7 8.3 14.5 10.7 9.5 5.7 21.6 5.6 31.6 1.3 0.6 0.1 1.7 0.2 2.3 0.3-2.4 5.8-1.9 12.2-2.5 18.3-8.6 2.3-17.9 4.2-26.6 1.4-3.8-1.3-7.7-2.8-10.6-5.6-2-6.4-1.1-14.3-6.1-19.5-0.9-2.3-1.7-4.6-2.6-6.9z"/><path class="X" d="m55.1 201.7c3.2 2.6 6.5 5.1 10.2 7 9.3 4.9 18.4 9.9 27 16 6.1 4.4 13.5 7.3 18.6 13.2-0.7 0.1-2 0.4-2.6 0.5q-0.9 2.2-1.7 4.4c-17-9.4-33.3-20.3-50.1-30.3-1.6-1.2-4.3-2.1-4.2-4.6 0-2.4 1.8-4.2 2.8-6.2z"/><path class="Y" d="m97.9 205.9c4 2.1 7.9 4.4 11.5 7.1 0.1 1.6 0 3.2 0.1 4.9-5.4-3.6-11.7-5.8-16.7-9.9 2.3 0.7 4.6 1.2 6.9 1.8q-0.8-2-1.8-3.9z"/><path class="u" d="m230.4 217.6c7.7-2 15.7-3.1 23.6-4 6.1-0.7 12 2.2 17 5.5-0.4 3.6-0.2 9.1-4.5 10.3-13.6 4.1-26.6 10.3-40 15.1-13.4 4.9-27.4 7.9-41.5 10.3-7.5 1.6-15.4 2.5-22.4 5.9-3.3 1.8-6.2 4.4-9.3 6.6-3.4-4.7-3.7-11.3-1.4-16.5 1.4-3.5 5.4-4.2 8.5-5.4 12.3-4.5 24-10.8 36.2-15.6 11.2-4.4 22.1-9.5 33.8-12.2z"/><path class="Z" d="m51.7 215.3c6 1.6 10.6 6.1 16 9 9.9 5.8 19.5 12 29.3 18-1.3 1.9-2.5 3.8-3.5 5.9-8.1-4.5-16.4-8.7-24.5-13.2-5.5-3-11.4-5.6-15.8-10.2-2.8-2.4-1.3-6.3-1.5-9.5z"/><path class="a0" d="m44.7 227c-0.4-2.6 1-4.8 2.1-6.9 2.8 3.2 5.5 6.6 9.1 9 6.4 4.5 13.7 7.5 20.4 11.6 13.9 9.1 28.8 16.8 42.1 26.9 10.1 7 23.2 4.9 34.4 2.1 4.7-0.9 7.8-5.1 12.4-6.6 5.1-1.6 10.5-2.1 15.8-3.1 2.9-0.4 5.7-1.2 8.6-0.9 0.6 0 1.9 0.2 2.5 0.3-9.2 3.3-18.8 6.3-27.1 11.6-6.9 4.1-13.6 9.2-21.8 10.2-7.3 0.8-15.2 1.1-21.9-2.4-6.2-3.3-11-8.6-16.8-12.3-17.8-11.8-38-19.8-55-33-2.1-1.7-4.2-3.8-4.8-6.5z"/><path class="a1" d="m105.3 221.3c2.2 1.8 4.6 3.6 6.8 5.5q-1.2 0.8-2.4 1.5 0.1 1.4 0.2 2.8c-2.7-1.7-5.5-3.2-8.4-4.3q1.9-2.8 3.8-5.5z"/><path class="a2" d="m179.8 229.5c5.6-3.1 12.2-4.1 18.7-3.6-2 1.5-4.2 2.5-6.5 3.3-7.6 2.4-14.4 7-22.3 8.8 2-2.4 5.4-3.5 6.7-6.5 1.1-0.6 2.2-1.3 3.4-2z"/><path class="N" d="m257.7 236.6c10.6-4 21.6-6.5 32.2-10.6 2.1 5.7-3.6 9.5-7.5 12.3-8.5 5.2-18.3 9.1-28.4 8.9-5.3 0-10.6 0.5-15.9 0.7-0.7 0-2.3 0-3 0q1-0.8 2.1-1.6c5.7-5.5 13.5-6.8 20.5-9.7z"/><path class="a3" d="m109.7 228.3q1.2-0.7 2.4-1.5c6.9 6.2 15.3 11.5 24.9 11.6 15.2 0.8 28.6-8.3 43.6-9.4l-0.8 0.5c-1.2 0.7-2.3 1.4-3.4 2-6.4 2.6-11 7.9-17.1 10.7-10 2.9-20.7 5.3-31 2.5-7.6-2.1-13.3-7.9-18.4-13.6q-0.1-1.4-0.2-2.8z"/><path class="M" d="m44.2 233.1c3.5 3.4 6.7 7.2 10.8 9.9 14.3 9.9 30.5 16.7 45.4 25.6 2.9 1.8 6.5 3.2 8 6.5 0.6 2 1.2 4 2.2 5.9 2.4 5 3.5 10.5 3.3 16-1.4-1.1-3.8-1.4-4.4-3.1q-0.2-2.1-0.5-4.1c-1-3.9-4.8-5.7-7.8-7.9-4.4-2.9-8.4-6.2-12.6-9.3-8-7.6-16.9-14.2-26.5-19.7-6.1-3.6-12.1-7.6-16.7-13.1-0.6-2.2-0.9-4.5-1.2-6.7z"/><path class="a4" d="m282 242c2.8-1.9 5.4-4.3 8.4-5.9 0.4 5.6 0.7 11.3-0.2 16.9-0.6 3-3.3 5-5.8 6.4-3.8 2.1-8.1 3.3-12.3 4.4 0-4.2 2.5-10.2-2-12.9-1.3-0.9-2.7-1.7-4-2.6 5.6-1.1 11-3.4 15.9-6.3z"/><path class="a5" d="m108.3 238.4c0.6-0.1 1.9-0.4 2.6-0.5 2.4 2.4 5 4.6 8 6.3-0.4 0-1.3 0-1.7 0l-1 0.1c1 4.4 0.5 9-0.1 13.5-1.8-3.2-2.5-7-5.1-9.8-1.4-1.7-2.9-3.4-4.4-5.2q0.8-2.2 1.7-4.4z"/><path class="a6" d="m45.4 239.8c4.6 5.5 10.6 9.5 16.7 13.1 9.6 5.5 18.5 12.1 26.5 19.6 4.8 7.8 14 11.1 20.4 17.3q0.3 2 0.5 4.1c-2.7-0.8-5.3-2.1-7.8-3.5-16.3-9.2-32.8-17.7-48.8-27.3-3.1-2-6.7-4.4-7.7-8.2-0.8-5-0.6-10.2 0.2-15.1z"/><path class="a7" d="m97 242.3c4.7 2.9 9.4 5.7 14.2 8.4 2.6 3.1 3.3 7.4 4.4 11.2-7.8-3.8-14.4-9.7-22.1-13.7 1-2.1 2.2-4 3.5-5.9z"/><path class="a8" d="m117.2 244.2c0.4 0 1.3 0 1.7 0 4.4 1 8.3 4.1 12.8 4.9 2.5 0.5 4.9 0.9 7.4 1.3 0.3 5.6 0.1 11.2 0.6 16.9-6.5-0.7-14.3 0.5-19.1-4.8-0.8-4.6 0.1-9.4-1.8-13.8q-0.8-2.2-1.6-4.5z"/><path class="v" d="m216.1 252.4c6.9-2.5 14.1-4.1 21.1-6.2q-1.1 0.9-2.1 1.7c0.7 0 2.3 0 3 0-7.6 2.5-15.8 2.4-23.2 5.8-4.1 2-8.8 1.4-13 3-3.2 0.9-6.4 2.6-9.8 2.7-0.6-0.1-1.9-0.3-2.5-0.3 8.6-2.9 17.8-3.9 26.5-6.7z"/><path class="a9" d="m131.7 249.1c6.1 0.6 12.2-0.2 18.2-1-2.4 6.2-2.3 12.9-2.1 19.5-2.2 0.2-4.3 0.7-6.4 0.5-0.5-0.2-1.3-0.6-1.7-0.8-0.5-5.7-0.3-11.3-0.6-16.9-2.5-0.4-4.9-0.8-7.4-1.3z"/><path class="aa" d="m118.8 248.7c1.9 4.4 1 9.2 1.8 13.8 4.8 5.3 12.7 4.1 19.1 4.8 0.4 0.2 1.2 0.6 1.6 0.8-7 1-14.9 0.7-21.1-3.3-1.5-0.7-1.5-2.4-1.6-3.8-0.3-4.1-0.2-8.2 0.2-12.3z"/><path class="ab" d="m227.4 253.5c9.9-1.4 19.6-4.9 29.6-3.7 4.7 0.5 9.5 2 13.3 4.9 1.7 2.5 0.9 5.9-0.1 8.5-1.6 1.9-4.3 2.5-6.6 3.4-19.5 6.4-37.7 16.7-57.9 21.2-15.8 3.3-32.2 4.5-47.4 10.3-0.1-5.7-0.2-12.3 4.3-16.5 9.3-8.2 21.2-12.7 32.5-17.4 10.6-4.1 21-9.1 32.3-10.7z"/><path class="ac" d="m162.2 275.1c10.9-7.2 23.1-13.1 36.1-15.1-9.2 4.6-19.2 7.2-28.2 12.1-3 1.7-5.6 3.9-8.5 5.7 0.1-0.5 0.3-1.4 0.4-1.8z"/><path class="l" d="m109 289.8c-6.4-6.2-15.6-9.5-20.4-17.3 4.2 3.2 8.2 6.5 12.6 9.4 3 2.2 6.8 4 7.8 7.9z"/><path class="ad" d="m107.4 275.1c3.7 0.4 6.2 3.4 9.3 5.1 7.8 4.9 17.4 5.4 26.3 3.9 6.6-1.1 12.2-5.1 18-8.1-0.1 0.4-0.3 1.3-0.4 1.8-1.2 3.2-3.7 5.7-4.6 9.1-1.3 4.4-1.3 9.1-1.5 13.6-12.4 5.7-27.5 5.4-39.3-1.6-1-6.1 0-13.9-5.6-17.9-1-1.9-1.6-3.9-2.2-5.9z"/></svg>